<?xml version="1.0"?>
<!DOCTYPE svg PUBLIC "-//W3C//DTD SVG 1.1//EN" "http://www.w3.org/Graphics/SVG/1.1/DTD/svg11.dtd">
<svg xmlns="http://www.w3.org/2000/svg" xmlns:xl="http://www.w3.org/1999/xlink" version="1.1" viewBox="5 4 224 225" width="224pt" height="225pt"><metadata xmlns:dc="http://purl.org/dc/elements/1.1/"><dc:date>2015-09-26 21:05Z</dc:date><!-- Produced by OmniGraffle Professional 5.4.4 --></metadata><defs></defs><g stroke="none" stroke-opacity="1" stroke-dasharray="none" fill="none" fill-opacity="1"><title>Canvas 1</title><rect fill="white" width="234" height="234"/><g><title>Layer 1</title><path d="M 117.37241 225 L 63.75539 194.43217 L 63.75539 133.2965 L 117.37241 102.72867 L 170.98943 133.2965 L 170.98943 194.43217 Z" fill="#232429"/><path d="M 117.37241 225 L 63.75539 194.43217 L 63.75539 133.2965 L 117.37241 102.72867 L 170.98943 133.2965 L 170.98943 194.43217 Z" stroke="#f66" stroke-linecap="round" stroke-linejoin="round" stroke-width="5"/><ellipse cx="117.404325" cy="163.86434" rx="30.638348" ry="30.56788" fill="#232429"/><ellipse cx="117.404325" cy="163.86434" rx="30.638348" ry="30.56788" stroke="#0080ff" stroke-linecap="round" stroke-linejoin="round" stroke-width="5"/><path d="M 62.86702 132.26811 L 9.25 101.70028 L 9.25 40.564615 L 62.86702 9.996783 L 116.48404 40.564615 L 116.48404 101.70028 Z" fill="#232429"/><path d="M 62.86702 132.26811 L 9.25 101.70028 L 9.25 40.564615 L 62.86702 9.996783 L 116.48404 40.564615 L 116.48404 101.70028 Z" stroke="#f66" stroke-linecap="round" stroke-linejoin="round" stroke-width="5"/><ellipse cx="62.6479" cy="70.992448" rx="30.638348" ry="30.56788" fill="#232429"/><ellipse cx="62.6479" cy="70.992448" rx="30.638348" ry="30.56788" stroke="#0080ff" stroke-linecap="round" stroke-linejoin="round" stroke-width="5"/><path d="M 171.13298 131.27133 L 117.51596 100.703497 L 117.51596 39.567832 L 171.13298 9 L 224.75 39.567832 L 224.75 100.703497 Z" fill="#232429"/><path d="M 171.13298 131.27133 L 117.51596 100.703497 L 117.51596 39.567832 L 171.13298 9 L 224.75 39.567832 L 224.75 100.703497 Z" stroke="#f66" stroke-linecap="round" stroke-linejoin="round" stroke-width="5"/><ellipse cx="171.16489" cy="70.135664" rx="30.638348" ry="30.56788" fill="#232429"/><ellipse cx="171.16489" cy="70.135664" rx="30.638348" ry="30.56788" stroke="#0080ff" stroke-linecap="round" stroke-linejoin="round" stroke-width="5"/></g></g></svg>
