<?xml version="1.0"?>
<!DOCTYPE svg PUBLIC "-//W3C//DTD SVG 1.1//EN" "http://www.w3.org/Graphics/SVG/1.1/DTD/svg11.dtd">
<svg xmlns="http://www.w3.org/2000/svg" xmlns:xl="http://www.w3.org/1999/xlink" version="1.1" viewBox="5 4 224 226" width="224pt" height="226pt"><metadata xmlns:dc="http://purl.org/dc/elements/1.1/"><dc:date>2015-09-26 16:47Z</dc:date><!-- Produced by OmniGraffle Professional 5.4.4 --></metadata><defs></defs><g stroke="none" stroke-opacity="1" stroke-dasharray="none" fill="none" fill-opacity="1"><title>Canvas 1</title><rect fill="white" width="234" height="234"/><g><title>Layer 1</title><path d="M 116.62759 9 L 170.24461 39.567832 L 170.24461 100.703497 L 116.62759 131.27133 L 63.01057 100.703497 L 63.01057 39.567832 Z" fill="#232429"/><path d="M 116.62759 9 L 170.24461 39.567832 L 170.24461 100.703497 L 116.62759 131.27133 L 63.01057 100.703497 L 63.01057 39.567832 Z" stroke="#f66" stroke-linecap="round" stroke-linejoin="round" stroke-width="5"/><ellipse cx="115.095675" cy="70.135664" rx="30.638348" ry="30.56788" fill="#232429"/><ellipse cx="115.095675" cy="70.135664" rx="30.638348" ry="30.56788" stroke="#0080ff" stroke-linecap="round" stroke-linejoin="round" stroke-width="5"/><path d="M 171.13298 101.73189 L 224.75 132.29972 L 224.75 193.43538 L 171.13298 224.00322 L 117.51596 193.43538 L 117.51596 132.29972 Z" fill="#232429"/><path d="M 171.13298 101.73189 L 224.75 132.29972 L 224.75 193.43538 L 171.13298 224.00322 L 117.51596 193.43538 L 117.51596 132.29972 Z" stroke="#f66" stroke-linecap="round" stroke-linejoin="round" stroke-width="5"/><ellipse cx="169.3521" cy="164.00755" rx="30.638348" ry="30.56788" fill="#232429"/><ellipse cx="169.3521" cy="164.00755" rx="30.638348" ry="30.56788" stroke="#0080ff" stroke-linecap="round" stroke-linejoin="round" stroke-width="5"/><path d="M 62.86702 102.72867 L 116.48404 133.2965 L 116.48404 194.43217 L 62.86702 225 L 9.25 194.43217 L 9.25 133.2965 Z" fill="#232429"/><path d="M 62.86702 102.72867 L 116.48404 133.2965 L 116.48404 194.43217 L 62.86702 225 L 9.25 194.43217 L 9.25 133.2965 Z" stroke="#f66" stroke-linecap="round" stroke-linejoin="round" stroke-width="5"/><ellipse cx="61.335106" cy="163.86434" rx="30.638348" ry="30.56788" fill="#232429"/><ellipse cx="61.335106" cy="163.86434" rx="30.638348" ry="30.56788" stroke="#0080ff" stroke-linecap="round" stroke-linejoin="round" stroke-width="5"/></g></g></svg>
